<svg
  width="818"
  height="884"
  viewBox="0 0 818 884"
  fill="none"
  xmlns="http://www.w3.org/2000/svg"
  xmlns:xlink="http://www.w3.org/1999/xlink"
>
  <path
    d="M594.398 550.82H431.871C424.139 550.82 417.871 544.552 417.871 536.82V484.179"
    stroke="#8DC1FD"
    stroke-width="2"
    id="nft"
  />
  <path
    d="M417.873 659.915H336.82C329.088 659.915 322.82 653.647 322.82 645.915V550.82V535.924C322.82 528.192 329.088 521.924 336.82 521.924H375.94C383.672 521.924 389.94 515.656 389.94 507.924V484.179"
    stroke="#8DC1FD"
    stroke-width="2"
    id="buyandsell"
  />
  <path
    d="M371.598 395.728H305.528C297.796 395.728 291.528 401.996 291.528 409.728V440.698C291.528 448.43 285.26 454.698 277.528 454.698H176.402"
    stroke="#8DC1FD"
    stroke-width="2"
    id="piggybank"
  />
  <path
    d="M618.604 368.012V414.751C618.604 422.483 612.336 428.751 604.604 428.751H467.418"
    stroke="#8DC1FD"
    stroke-width="2"
    id="marketplace"
  />
  <path
    d="M251.381 242.406H316.493C324.225 242.406 330.493 248.674 330.493 256.406V294.452C330.493 302.184 336.761 308.452 344.493 308.452H417.872V354.35"
    stroke="#8DC1FD"
    stroke-width="2"
    id="exchange"
  />
  <path
    d="M236.035 610.983V564.833C236.035 557.101 242.303 550.833 250.035 550.833H322.823C322.823 550.833 322.823 544.565 322.823 536.833V535.938C322.823 528.206 329.091 521.938 336.823 521.938H375.943C383.675 521.938 389.943 515.67 389.943 507.938V484.192"
    stroke="#8DC1FD"
    stroke-width="2"
    id="auction"
  />
  <path
    d="M464.512 172.231V270.864C464.512 278.596 458.244 284.864 450.512 284.864H431.871C424.139 284.864 417.871 291.132 417.871 298.864V308.452V354.348"
    stroke="#8DC1FD"
    stroke-width="2"
    id="milestonepayment"
  />
  <circle r="5" fill="#fff">
    <animateMotion
      dur="2s"
      repeatCount="indefinite"
      keyPoints="1;0"
      keyTimes="0;1"
      calcMode="linear"
      id="nftCircle"
    >
      <mpath xlink:href="#nft"></mpath>
    </animateMotion>
  </circle>
  <circle r="5" fill="#fff">
    <animateMotion
      dur="3s"
      repeatCount="indefinite"
      keyPoints="1;0"
      keyTimes="0;1"
      calcMode="linear"
      id="buyandsellCircle"
    >
      <mpath xlink:href="#buyandsell"></mpath>
    </animateMotion>
  </circle>
  <circle r="5" fill="#fff">
    <animateMotion dur="3s" repeatCount="indefinite" id="piggybankCircle">
      <mpath xlink:href="#piggybank"></mpath>
    </animateMotion>
  </circle>
  <circle r="5" fill="#fff">
    <animateMotion
      dur="1.6s"
      repeatCount="indefinite"
      keyPoints="1;0"
      keyTimes="0;1"
      calcMode="linear"
      id="marketplaceCircle"
    >
      <mpath xlink:href="#marketplace"></mpath>
    </animateMotion>
  </circle>
  <circle r="5" fill="#fff">
    <animateMotion
      dur="2s"
      repeatCount="indefinite"
      keyPoints="1;0"
      keyTimes="0;1"
      calcMode="linear"
      id="exchangeCircle"
    >
      <mpath xlink:href="#exchange"></mpath>
    </animateMotion>
  </circle>
  <circle r="5" fill="#fff">
    <animateMotion
      dur="1.8s"
      repeatCount="indefinite"
      keyPoints="1;0"
      keyTimes="0;1"
      calcMode="linear"
      id="auctionCircle"
    >
      <mpath xlink:href="#auction"></mpath>
    </animateMotion>
  </circle>
  <circle r="5" fill="#fff">
    <animateMotion
      dur="2.6s"
      repeatCount="indefinite"
      keyPoints="1;0"
      keyTimes="0;1"
      calcMode="linear"
      id="milestoneCircle"
    >
      <mpath xlink:href="#milestonepayment"></mpath>
    </animateMotion>
  </circle>
  <g filter="url(#filter0_d_1900_3101)">
    <rect x="358.531" y="341" width="120" height="153" rx="16" fill="white" />
    <path
      d="M400.801 429.16C403.969 429.16 405.505 427.736 405.505 425.608C405.505 423.64 404.225 422.76 401.905 422.424L400.449 422.216C398.929 422.008 398.561 421.608 398.561 420.824C398.561 419.784 399.233 419.08 400.753 419.08C402.273 419.08 403.009 419.768 403.153 421.112H405.217C405.217 418.888 403.761 417.448 400.801 417.448C397.841 417.448 396.385 418.904 396.385 420.952C396.385 422.808 397.313 423.64 399.697 423.976L401.153 424.184C402.897 424.44 403.329 424.952 403.329 425.736C403.329 426.792 402.577 427.528 400.849 427.528C399.073 427.528 398.385 426.84 398.209 425.336H396.097C396.097 427.768 397.633 429.16 400.801 429.16ZM418.555 429V423.544C418.555 421.544 417.723 420.584 416.027 420.584C414.891 420.584 414.075 421.176 413.659 422.136C413.323 421.096 412.571 420.584 411.371 420.584C410.235 420.584 409.531 421.208 409.131 422.088V420.744H407.163V429H409.147V424.328C409.147 422.984 409.835 422.264 410.699 422.264C411.483 422.264 411.851 422.776 411.851 423.88V429H413.851V424.328C413.851 422.984 414.539 422.264 415.403 422.264C416.203 422.264 416.571 422.776 416.571 423.88V429H418.555ZM423.189 429.16C424.597 429.16 425.429 428.664 425.893 427.72C425.893 428.36 426.005 428.696 426.245 429H428.117C427.957 428.728 427.861 428.008 427.861 426.888V423.352C427.861 421.672 426.805 420.584 424.261 420.584C421.717 420.584 420.661 421.672 420.661 423.352H422.709C422.789 422.472 423.317 422.056 424.277 422.056C425.301 422.056 425.797 422.536 425.797 423.352C425.797 423.784 425.557 424.008 424.725 424.088L423.045 424.232C420.965 424.392 420.213 425.4 420.213 426.664C420.213 428.184 421.253 429.16 423.189 429.16ZM423.797 427.752C422.741 427.752 422.277 427.256 422.277 426.52C422.277 425.928 422.693 425.496 423.733 425.4L424.709 425.32C425.269 425.272 425.653 425.176 425.797 425V425.576C425.797 426.776 425.077 427.752 423.797 427.752ZM431.905 429V425.16C431.905 423.48 432.753 422.536 434.017 422.536L434.865 422.552V420.744C434.673 420.696 434.337 420.632 434.113 420.632C432.961 420.632 432.241 421.128 431.809 422.584V420.744H429.841V429H431.905ZM439.615 429.08C439.983 429.08 440.639 429.032 440.975 429V427.608L440.111 427.624C439.455 427.624 439.183 427.4 439.183 426.76V422.216H440.975V420.744H439.183V418.248H437.119V420.744H435.823V422.216H437.119V426.68C437.119 428.504 437.743 429.08 439.615 429.08ZM390.705 453.16C393.905 453.16 395.969 451.256 395.969 448.744H393.905C393.713 450.36 392.657 451.384 390.705 451.384C388.417 451.384 387.233 449.928 387.233 447.304C387.233 444.68 388.417 443.224 390.705 443.224C392.689 443.224 393.713 444.312 393.905 445.768H395.969C395.969 443.304 393.841 441.448 390.705 441.448C387.089 441.448 385.057 443.832 385.057 447.304C385.057 450.776 387.089 453.16 390.705 453.16ZM401.51 453.16C404.214 453.16 405.718 451.48 405.718 448.872C405.718 446.28 404.214 444.584 401.51 444.584C398.822 444.584 397.318 446.28 397.318 448.872C397.318 451.48 398.822 453.16 401.51 453.16ZM401.51 451.592C400.15 451.592 399.382 450.696 399.382 448.872C399.382 447.048 400.15 446.152 401.51 446.152C402.886 446.152 403.654 447.048 403.654 448.872C403.654 450.696 402.886 451.592 401.51 451.592ZM414.712 453V447.544C414.712 445.544 413.768 444.584 411.88 444.584C410.536 444.584 409.8 445.208 409.352 446.088V444.744H407.384V453H409.448V448.392C409.448 447.048 410.152 446.264 411.24 446.264C412.248 446.264 412.648 446.824 412.648 447.944V453H414.712ZM419.735 453.08C420.103 453.08 420.759 453.032 421.095 453V451.608L420.231 451.624C419.575 451.624 419.303 451.4 419.303 450.76V446.216H421.095V444.744H419.303V442.248H417.239V444.744H415.943V446.216H417.239V450.68C417.239 452.504 417.863 453.08 419.735 453.08ZM424.814 453V449.16C424.814 447.48 425.662 446.536 426.926 446.536L427.774 446.552V444.744C427.582 444.696 427.246 444.632 427.022 444.632C425.87 444.632 425.15 445.128 424.718 446.584V444.744H422.75V453H424.814ZM431.589 453.16C432.997 453.16 433.829 452.664 434.293 451.72C434.293 452.36 434.405 452.696 434.645 453H436.517C436.357 452.728 436.261 452.008 436.261 450.888V447.352C436.261 445.672 435.205 444.584 432.661 444.584C430.117 444.584 429.061 445.672 429.061 447.352H431.109C431.189 446.472 431.717 446.056 432.677 446.056C433.701 446.056 434.197 446.536 434.197 447.352C434.197 447.784 433.957 448.008 433.125 448.088L431.445 448.232C429.365 448.392 428.613 449.4 428.613 450.664C428.613 452.184 429.653 453.16 431.589 453.16ZM432.197 451.752C431.141 451.752 430.677 451.256 430.677 450.52C430.677 449.928 431.093 449.496 432.133 449.4L433.109 449.32C433.669 449.272 434.053 449.176 434.197 449V449.576C434.197 450.776 433.477 451.752 432.197 451.752ZM442.065 453.16C444.641 453.16 445.953 451.576 445.953 449.8H444.017C443.857 451.032 443.153 451.592 442.065 451.592C440.753 451.592 439.985 450.696 439.985 448.872C439.985 447.048 440.753 446.152 442.065 446.152C443.313 446.152 443.873 446.904 444.017 447.88H445.953C445.953 446.264 444.737 444.584 442.065 444.584C439.425 444.584 437.921 446.28 437.921 448.872C437.921 451.48 439.425 453.16 442.065 453.16ZM450.655 453.08C451.023 453.08 451.679 453.032 452.015 453V451.608L451.151 451.624C450.495 451.624 450.223 451.4 450.223 450.76V446.216H452.015V444.744H450.223V442.248H448.159V444.744H446.863V446.216H448.159V450.68C448.159 452.504 448.783 453.08 450.655 453.08ZM395.905 469.24C395.905 466.904 394.337 465.608 391.809 465.608H386.833V477H389.009V472.872H391.809C394.337 472.872 395.905 471.592 395.905 469.24ZM393.729 469.24C393.729 470.616 392.945 471.24 391.505 471.24H389.009V467.24H391.505C392.945 467.24 393.729 467.88 393.729 469.24ZM399.639 477V465.608H397.575V477H399.639ZM404.274 477.16C405.682 477.16 406.514 476.664 406.978 475.72C406.978 476.36 407.09 476.696 407.33 477H409.202C409.042 476.728 408.946 476.008 408.946 474.888V471.352C408.946 469.672 407.89 468.584 405.346 468.584C402.802 468.584 401.746 469.672 401.746 471.352H403.794C403.874 470.472 404.402 470.056 405.362 470.056C406.386 470.056 406.882 470.536 406.882 471.352C406.882 471.784 406.642 472.008 405.81 472.088L404.13 472.232C402.05 472.392 401.298 473.4 401.298 474.664C401.298 476.184 402.338 477.16 404.274 477.16ZM404.882 475.752C403.826 475.752 403.362 475.256 403.362 474.52C403.362 473.928 403.778 473.496 404.818 473.4L405.794 473.32C406.354 473.272 406.738 473.176 406.882 473V473.576C406.882 474.776 406.162 475.752 404.882 475.752ZM413.97 477.08C414.338 477.08 414.994 477.032 415.33 477V475.608L414.466 475.624C413.81 475.624 413.538 475.4 413.538 474.76V470.216H415.33V468.744H413.538V466.248H411.474V468.744H410.178V470.216H411.474V474.68C411.474 476.504 412.098 477.08 413.97 477.08ZM419.752 477V470.216H421.544V468.744H419.752V467.944C419.752 467.304 420.024 466.984 420.68 466.984L421.544 467V465.608C421.208 465.576 420.552 465.528 420.184 465.528C418.408 465.528 417.688 466.296 417.688 468.024V468.744H416.392V470.216H417.688V477H419.752ZM426.524 477.16C429.228 477.16 430.732 475.48 430.732 472.872C430.732 470.28 429.228 468.584 426.524 468.584C423.836 468.584 422.332 470.28 422.332 472.872C422.332 475.48 423.836 477.16 426.524 477.16ZM426.524 475.592C425.164 475.592 424.396 474.696 424.396 472.872C424.396 471.048 425.164 470.152 426.524 470.152C427.9 470.152 428.668 471.048 428.668 472.872C428.668 474.696 427.9 475.592 426.524 475.592ZM434.461 477V473.16C434.461 471.48 435.309 470.536 436.573 470.536L437.421 470.552V468.744C437.229 468.696 436.893 468.632 436.669 468.632C435.517 468.632 434.797 469.128 434.365 470.584V468.744H432.397V477H434.461ZM450.363 477V471.544C450.363 469.544 449.531 468.584 447.835 468.584C446.699 468.584 445.883 469.176 445.467 470.136C445.131 469.096 444.379 468.584 443.179 468.584C442.043 468.584 441.339 469.208 440.939 470.088V468.744H438.971V477H440.955V472.328C440.955 470.984 441.643 470.264 442.507 470.264C443.291 470.264 443.659 470.776 443.659 471.88V477H445.659V472.328C445.659 470.984 446.347 470.264 447.211 470.264C448.011 470.264 448.379 470.776 448.379 471.88V477H450.363Z"
      fill="#19192C"
    />
    <path
      d="M428.435 387.479C426.954 389.747 427.555 392.755 429.823 394.283C432.091 395.764 435.099 395.162 436.626 392.894C438.107 390.627 437.506 387.618 435.238 386.091C432.924 384.61 429.916 385.258 428.435 387.479Z"
      fill="#1A82FB"
    />
    <path
      d="M400.435 369.106C398.954 371.373 399.555 374.382 401.823 375.909C404.091 377.39 407.099 376.788 408.626 374.521C410.154 372.253 409.506 369.245 407.238 367.717C404.97 366.236 401.962 366.884 400.435 369.106Z"
      fill="#1A82FB"
    />
    <path
      fill-rule="evenodd"
      clip-rule="evenodd"
      d="M427.279 367.717C434.637 372.53 436.674 382.435 431.86 389.747C430.981 391.089 429.917 392.292 428.713 393.264C429.037 393.635 429.408 394.005 429.824 394.283C429.87 394.283 429.917 394.329 429.917 394.329C431.166 393.264 432.231 392.015 433.203 390.626C438.525 382.527 436.257 371.651 428.158 366.329C423.1 363 417.021 362.594 411.828 364.744C411.284 364.969 411.105 365.643 411.495 366.084C411.71 366.327 412.099 366.431 412.398 366.306C417.149 364.322 422.673 364.676 427.279 367.717ZM425.576 395.895C425.937 396.326 425.816 397 425.298 397.217C420.09 399.405 413.99 399.017 408.905 395.671C400.806 390.349 398.538 379.473 403.86 371.373C404.786 369.939 405.897 368.735 407.146 367.671C407.193 367.671 407.239 367.717 407.239 367.717C407.702 367.995 408.072 368.365 408.35 368.735C407.146 369.707 406.082 370.911 405.203 372.253C400.389 379.611 402.426 389.469 409.784 394.283C414.373 397.312 419.914 397.653 424.656 395.693C424.984 395.558 425.349 395.624 425.576 395.895Z"
      fill="#1A82FB"
    />
  </g>
  <g filter="url(#filter1_dddd_1900_3101)">
    <rect
      x="562.031"
      y="274.572"
      width="138"
      height="116.863"
      rx="16"
      fill="white"
    />
    <path
      d="M598.244 366.072V354.68H595.46L592.068 363.432L588.676 354.68H585.892V366.072H587.588V356.312L591.3 366.072H592.82L596.548 356.312V366.072H598.244ZM602.832 366.232C604.256 366.232 605.168 365.704 605.616 364.648C605.616 365.416 605.712 365.752 605.968 366.072H607.488C607.328 365.8 607.232 365.08 607.232 363.96V360.376C607.232 358.712 606.192 357.656 603.776 357.656C601.344 357.656 600.32 358.712 600.32 360.376H601.984C602.064 359.352 602.672 358.872 603.792 358.872C604.992 358.872 605.536 359.432 605.536 360.376C605.536 360.904 605.248 361.128 604.272 361.224L602.672 361.352C600.624 361.528 599.872 362.504 599.872 363.736C599.872 365.272 600.912 366.232 602.832 366.232ZM603.296 365.064C602.08 365.064 601.568 364.472 601.568 363.624C601.568 362.952 602.032 362.456 603.216 362.36L604.272 362.264C604.912 362.216 605.36 362.088 605.536 361.864V362.568C605.536 363.928 604.752 365.064 603.296 365.064ZM610.768 366.072V362.152C610.768 360.312 611.648 359.272 612.992 359.272L613.808 359.304V357.816C613.6 357.768 613.28 357.72 613.056 357.72C611.856 357.72 611.12 358.264 610.688 359.72V357.816H609.072V366.072H610.768ZM622.916 366.072L619.428 361.112L622.756 357.816H620.788L616.868 361.752V354.68H615.172V366.072H616.868V363.672L618.276 362.296L620.948 366.072H622.916ZM627.234 366.232C629.378 366.232 630.578 365.192 630.946 363.512H629.394C629.138 364.456 628.402 365.064 627.234 365.064C625.826 365.064 624.898 364.216 624.85 362.264H631.09C631.106 362.104 631.122 361.96 631.122 361.8C631.122 359.432 629.746 357.656 627.138 357.656C624.53 357.656 623.154 359.4 623.154 361.944C623.154 364.568 624.61 366.232 627.234 366.232ZM627.138 358.824C628.418 358.824 629.25 359.592 629.426 361.144H624.85C625.026 359.592 625.858 358.824 627.138 358.824ZM635.52 366.152C635.856 366.152 636.448 366.104 636.784 366.072V364.92L635.904 364.936C635.152 364.936 634.88 364.728 634.88 364.008V359.032H636.784V357.816H634.88V355.32H633.184V357.816H631.84V359.032H633.184V363.96C633.184 365.64 633.792 366.152 635.52 366.152ZM642.619 366.232C644.843 366.232 646.235 364.648 646.235 361.944C646.235 359.24 644.843 357.656 642.619 357.656C641.195 357.656 640.299 358.28 639.851 359.352V357.816H638.235V369.208H639.931V364.664C640.395 365.688 641.291 366.232 642.619 366.232ZM642.235 364.936C640.859 364.936 639.931 364.024 639.931 361.944C639.931 359.88 640.859 358.952 642.235 358.952C643.595 358.952 644.539 359.88 644.539 361.944C644.539 364.024 643.595 364.936 642.235 364.936ZM649.453 366.072V354.68H647.757V366.072H649.453ZM653.933 366.232C655.357 366.232 656.269 365.704 656.717 364.648C656.717 365.416 656.813 365.752 657.069 366.072H658.589C658.429 365.8 658.333 365.08 658.333 363.96V360.376C658.333 358.712 657.293 357.656 654.877 357.656C652.445 357.656 651.421 358.712 651.421 360.376H653.085C653.165 359.352 653.773 358.872 654.893 358.872C656.093 358.872 656.637 359.432 656.637 360.376C656.637 360.904 656.349 361.128 655.373 361.224L653.773 361.352C651.725 361.528 650.973 362.504 650.973 363.736C650.973 365.272 652.013 366.232 653.933 366.232ZM654.397 365.064C653.181 365.064 652.669 364.472 652.669 363.624C652.669 362.952 653.133 362.456 654.317 362.36L655.373 362.264C656.013 362.216 656.461 362.088 656.637 361.864V362.568C656.637 363.928 655.853 365.064 654.397 365.064ZM663.854 366.232C666.366 366.232 667.598 364.664 667.598 362.968H666.03C665.854 364.28 665.086 364.936 663.854 364.936C662.414 364.936 661.55 363.944 661.55 361.944C661.55 359.96 662.414 358.952 663.854 358.952C665.262 358.952 665.87 359.832 666.03 360.856H667.598C667.598 359.32 666.462 357.656 663.854 357.656C661.31 357.656 659.854 359.32 659.854 361.944C659.854 364.568 661.31 366.232 663.854 366.232ZM672.721 366.232C674.865 366.232 676.065 365.192 676.433 363.512H674.881C674.625 364.456 673.889 365.064 672.721 365.064C671.313 365.064 670.385 364.216 670.337 362.264H676.577C676.593 362.104 676.609 361.96 676.609 361.8C676.609 359.432 675.233 357.656 672.625 357.656C670.017 357.656 668.641 359.4 668.641 361.944C668.641 364.568 670.097 366.232 672.721 366.232ZM672.625 358.824C673.905 358.824 674.737 359.592 674.913 361.144H670.337C670.513 359.592 671.345 358.824 672.625 358.824Z"
      fill="#19192C"
    />
    <path
      d="M631.152 339.519C631.08 339.574 630.981 339.574 630.909 339.519L612.923 325.771C612.818 325.691 612.818 325.533 612.923 325.453L615.89 323.185C615.962 323.13 616.061 323.13 616.133 323.185L630.889 334.459C630.961 334.514 631.06 334.514 631.132 334.459L645.908 323.167C645.979 323.112 646.079 323.112 646.151 323.167L649.139 325.453C649.243 325.533 649.243 325.691 649.139 325.771L631.152 339.519ZM631.152 330.979C631.08 331.034 630.981 331.034 630.909 330.979L612.923 317.231C612.818 317.151 612.818 316.993 612.923 316.913L615.89 314.645C615.962 314.59 616.061 314.59 616.133 314.645L630.889 325.919C630.961 325.974 631.06 325.974 631.132 325.919L645.908 314.625C645.979 314.57 646.079 314.57 646.151 314.625L649.139 316.913C649.243 316.993 649.243 317.15 649.139 317.23L631.152 330.979ZM631.152 322.439C631.08 322.494 630.981 322.494 630.909 322.439L616.032 311.072L612.922 308.691C612.818 308.611 612.818 308.453 612.923 308.373L630.909 294.625C630.981 294.57 631.08 294.57 631.152 294.625L649.138 308.372C649.243 308.453 649.243 308.611 649.138 308.691L646.009 311.072L631.152 322.439Z"
      fill=" #1A82FB"
    />
  </g>
  <rect
    x="562.031"
    y="274.572"
    width="138"
    height="116.863"
    rx="16"
    fill="#ffffff80"
  >
    <animate
      attributeName="fill"
      attributeType="XML"
      dur="1.6s"
      begin="0;marketplaceCircle.end"
      values="#ffffff4D;#ffffff80;#ffffff80;#ffffff80;#ffffff80;#ffffff80;#ffffff80;#ffffff80;#ffffff80;#ffffff80;#ffffff80;#ffffff80;#ffffff00;#ffffff00"
      repeatCount="indefinite"
      calcMode="linear"
    />
  </rect>
  <g filter="url(#filter2_dddd_1900_3101)">
    <rect
      x="161.254"
      y="591.104"
      width="116"
      height="116.863"
      rx="16"
      fill="white"
    />
    <path
      d="M202.246 680.104L197.894 668.712H195.718L191.366 680.104H193.19L194.198 677.48H199.414L200.406 680.104H202.246ZM198.966 676.104H194.646L196.806 670.36L198.966 676.104ZM205.936 680.264C207.312 680.264 208.096 679.624 208.56 678.68V680.104H210.176V671.848H208.48V676.456C208.48 677.96 207.68 678.888 206.448 678.888C205.28 678.888 204.832 678.248 204.832 677V671.848H203.136V677.304C203.136 679.304 204.048 680.264 205.936 680.264ZM215.697 680.264C218.209 680.264 219.441 678.696 219.441 677H217.873C217.697 678.312 216.929 678.968 215.697 678.968C214.257 678.968 213.393 677.976 213.393 675.976C213.393 673.992 214.257 672.984 215.697 672.984C217.105 672.984 217.713 673.864 217.873 674.888H219.441C219.441 673.352 218.305 671.688 215.697 671.688C213.153 671.688 211.697 673.352 211.697 675.976C211.697 678.6 213.153 680.264 215.697 680.264ZM223.844 680.184C224.18 680.184 224.772 680.136 225.108 680.104V678.952L224.228 678.968C223.476 678.968 223.204 678.76 223.204 678.04V673.064H225.108V671.848H223.204V669.352H221.508V671.848H220.164V673.064H221.508V677.992C221.508 679.672 222.116 680.184 223.844 680.184ZM228.256 680.104V671.848H226.56V680.104H228.256ZM227.408 670.408C228.048 670.408 228.416 670.024 228.416 669.512C228.416 669 228.048 668.6 227.408 668.6C226.752 668.6 226.4 669 226.4 669.512C226.4 670.024 226.752 670.408 227.408 670.408ZM233.856 680.264C236.48 680.264 237.936 678.6 237.936 675.976C237.936 673.352 236.48 671.688 233.856 671.688C231.232 671.688 229.776 673.352 229.776 675.976C229.776 678.6 231.232 680.264 233.856 680.264ZM233.856 678.968C232.336 678.968 231.472 677.976 231.472 675.976C231.472 673.992 232.336 672.984 233.856 672.984C235.376 672.984 236.24 673.992 236.24 675.976C236.24 677.976 235.376 678.968 233.856 678.968ZM246.501 680.104V674.648C246.501 672.648 245.589 671.688 243.701 671.688C242.325 671.688 241.525 672.328 241.077 673.288V671.848H239.461V680.104H241.157V675.496C241.157 673.992 241.957 673.064 243.189 673.064C244.357 673.064 244.805 673.704 244.805 674.952V680.104H246.501Z"
      fill="#19192C"
    />
    <path
      d="M220.816 637.142C220.401 636.652 220.431 635.926 220.885 635.472L221.633 634.723C222.087 634.269 222.814 634.239 223.303 634.654L237.701 646.857C239.184 648.113 239.277 650.367 237.903 651.741C236.529 653.115 234.275 653.022 233.018 651.54L220.816 637.142Z"
      fill=" #1A82FB"
    />
    <path
      d="M199.343 633.025C198.693 632.375 198.693 631.32 199.343 630.67C199.994 630.02 201.048 630.02 201.698 630.67L211.311 640.282C211.961 640.933 211.961 641.987 211.311 642.638C210.661 643.288 209.606 643.288 208.956 642.638L199.343 633.025Z"
      fill=" #1A82FB"
    />
    <path
      d="M216.811 615.557C216.161 614.907 216.161 613.853 216.811 613.202C217.461 612.552 218.516 612.552 219.166 613.202L228.779 622.815C229.429 623.465 229.429 624.52 228.779 625.17C228.128 625.82 227.074 625.82 226.423 625.17L216.811 615.557Z"
      fill=" #1A82FB"
    />
    <path
      d="M205.621 631.236C204.176 629.79 204.176 627.447 205.621 626.001L212.278 619.345C213.723 617.899 216.067 617.899 217.512 619.345L222.636 624.469C224.081 625.914 224.081 628.258 222.636 629.703L215.979 636.36C214.534 637.805 212.19 637.805 210.745 636.36L205.621 631.236Z"
      fill=" #1A82FB"
    />
  </g>
  <rect
    x="161.254"
    y="591.104"
    width="116"
    height="116.863"
    rx="16"
    fill="#ffffff80"
  >
    <animate
      attributeName="fill"
      attributeType="XML"
      dur="1.8s"
      begin="0;auctionCircle.end"
      values="#ffffff4D;#ffffff80;#ffffff80;#ffffff80;#ffffff80;#ffffff80;#ffffff80;#ffffff80;#ffffff80;#ffffff80;#ffffff80;#ffffff80;#ffffff00;#ffffff00"
      repeatCount="indefinite"
      calcMode="linear"
    />
  </rect>
  <g filter="url(#filter3_dddd_1900_3101)">
    <rect
      x="372.531"
      y="595.197"
      width="114"
      height="168.803"
      rx="16"
      fill="white"
    />
    <path
      d="M425.523 686.577C425.523 685.217 424.771 684.161 423.299 683.857C424.563 683.521 425.203 682.577 425.203 681.313C425.203 679.521 423.907 678.305 421.555 678.305H416.211V689.697H421.875C424.227 689.697 425.523 688.369 425.523 686.577ZM423.747 686.449C423.747 687.569 423.043 688.353 421.683 688.353H417.987V684.545H421.683C423.043 684.545 423.747 685.329 423.747 686.449ZM423.427 681.441C423.427 682.561 422.723 683.233 421.363 683.233H417.987V679.649H421.363C422.723 679.649 423.427 680.321 423.427 681.441ZM429.842 689.857C431.218 689.857 432.002 689.217 432.466 688.273V689.697H434.082V681.441H432.386V686.049C432.386 687.553 431.586 688.481 430.354 688.481C429.186 688.481 428.738 687.841 428.738 686.593V681.441H427.042V686.897C427.042 688.897 427.954 689.857 429.842 689.857ZM436.035 692.833H436.755C438.547 692.833 439.491 692.097 440.435 689.665L443.603 681.441H441.827L439.427 688.337L437.043 681.441H435.283L438.419 689.665C438.483 689.825 438.515 690.001 438.515 690.161C438.515 690.913 437.875 691.617 436.771 691.617H436.035V692.833ZM419.45 711.857C420.874 711.857 421.786 711.329 422.234 710.273C422.234 711.041 422.33 711.377 422.586 711.697H424.106C423.946 711.425 423.85 710.705 423.85 709.585V706.001C423.85 704.337 422.81 703.281 420.394 703.281C417.962 703.281 416.938 704.337 416.938 706.001H418.602C418.682 704.977 419.29 704.497 420.41 704.497C421.61 704.497 422.154 705.057 422.154 706.001C422.154 706.529 421.866 706.753 420.89 706.849L419.29 706.977C417.242 707.153 416.49 708.129 416.49 709.361C416.49 710.897 417.53 711.857 419.45 711.857ZM419.914 710.689C418.698 710.689 418.186 710.097 418.186 709.249C418.186 708.577 418.65 708.081 419.834 707.985L420.89 707.889C421.53 707.841 421.978 707.713 422.154 707.489V708.193C422.154 709.553 421.37 710.689 419.914 710.689ZM432.731 711.697V706.241C432.731 704.241 431.819 703.281 429.931 703.281C428.555 703.281 427.755 703.921 427.307 704.881V703.441H425.691V711.697H427.387V707.089C427.387 705.585 428.187 704.657 429.419 704.657C430.587 704.657 431.035 705.297 431.035 706.545V711.697H432.731ZM437.851 711.857C439.291 711.857 440.171 711.233 440.635 710.177V711.697H442.251V700.305H440.555V704.849C440.091 703.825 439.179 703.281 437.851 703.281C435.627 703.281 434.251 704.865 434.251 707.569C434.251 710.273 435.627 711.857 437.851 711.857ZM438.251 710.561C436.875 710.561 435.947 709.649 435.947 707.569C435.947 705.505 436.875 704.577 438.251 704.577C439.611 704.577 440.555 705.505 440.555 707.569C440.555 709.649 439.611 710.561 438.251 710.561ZM421.414 733.857C424.502 733.857 425.974 732.481 425.974 730.321C425.974 728.481 424.758 727.617 422.502 727.297L420.918 727.057C419.318 726.833 418.918 726.369 418.918 725.505C418.918 724.289 419.67 723.489 421.366 723.489C423.094 723.489 423.846 724.257 424.022 725.761H425.686C425.686 723.537 424.294 722.145 421.414 722.145C418.534 722.145 417.142 723.569 417.142 725.601C417.142 727.329 417.99 728.177 420.342 728.513L421.926 728.753C423.734 729.009 424.198 729.601 424.198 730.433C424.198 731.697 423.398 732.513 421.446 732.513C419.462 732.513 418.742 731.729 418.566 730.081H416.854C416.854 732.513 418.326 733.857 421.414 733.857ZM431.253 733.857C433.397 733.857 434.597 732.817 434.965 731.137H433.413C433.157 732.081 432.421 732.689 431.253 732.689C429.845 732.689 428.917 731.841 428.869 729.889H435.109C435.125 729.729 435.141 729.585 435.141 729.425C435.141 727.057 433.765 725.281 431.157 725.281C428.549 725.281 427.173 727.025 427.173 729.569C427.173 732.193 428.629 733.857 431.253 733.857ZM431.157 726.449C432.437 726.449 433.269 727.217 433.445 728.769H428.869C429.045 727.217 429.877 726.449 431.157 726.449ZM438.35 733.697V722.305H436.654V733.697H438.35ZM441.887 733.697V722.305H440.191V733.697H441.887Z"
      fill="#19192C"
    />
    <path
      fill-rule="evenodd"
      clip-rule="evenodd"
      d="M408.204 646.02C408.094 646.003 407.992 646.077 407.975 646.186L406.305 656.727C406.288 656.836 406.362 656.938 406.471 656.956L430.169 660.799C430.231 660.809 430.294 660.789 430.339 660.746C430.377 660.751 430.416 660.746 430.453 660.728L446.808 652.751C446.908 652.702 446.949 652.583 446.9 652.483L445.621 649.861C445.573 649.762 445.453 649.721 445.354 649.769L434.095 655.261L421.539 653.124C421.428 653.106 421.355 653 421.376 652.89L421.587 651.76C421.607 651.653 421.709 651.582 421.816 651.599L432.192 653.307C432.3 653.325 432.402 653.253 432.421 653.146L432.976 650.151C432.997 650.041 432.922 649.935 432.811 649.918L408.204 646.02Z"
      fill=" #1A82FB"
    />
    <path
      fill-rule="evenodd"
      clip-rule="evenodd"
      d="M450.859 639.375C450.968 639.392 451.071 639.318 451.088 639.208L452.757 628.668C452.775 628.559 452.7 628.457 452.592 628.439L428.894 624.596C428.832 624.586 428.769 624.606 428.724 624.649C428.686 624.643 428.646 624.649 428.609 624.667L412.254 632.644C412.155 632.692 412.114 632.812 412.162 632.911L413.441 635.533C413.489 635.633 413.609 635.674 413.708 635.626L424.968 630.134L437.524 632.27C437.634 632.289 437.707 632.394 437.687 632.504L437.476 633.635C437.456 633.742 437.354 633.813 437.246 633.796L426.87 632.088C426.763 632.07 426.661 632.142 426.641 632.249L426.086 635.243C426.066 635.354 426.14 635.46 426.252 635.477L450.859 639.375Z"
      fill=" #1A82FB"
    />
  </g>
  <rect
    x="372.531"
    y="595.197"
    width="114"
    height="168.803"
    rx="16"
    fill="#ffffff80"
  >
    <animate
      attributeName="fill"
      attributeType="XML"
      dur="3s"
      begin="0;buyandsellCircle.end"
      values="#ffffff4D;#ffffff80;#ffffff80;#ffffff80;#ffffff80;#ffffff80;#ffffff80;#ffffff80;#ffffff80;#ffffff80;#ffffff80;#ffffff80;#ffffff00;#ffffff00"
      repeatCount="indefinite"
      calcMode="linear"
    />
  </rect>
  <g filter="url(#filter4_dddd_1900_3101)">
    <rect
      x="533.531"
      y="509.298"
      width="199"
      height="95.888"
      rx="16"
      fill="white"
    />
    <path
      d="M566.858 579.298V567.906H565.162V576.802L559.29 567.906H557.354V579.298H559.05V570.402L564.922 579.298H566.858ZM572.57 579.458C575.194 579.458 576.65 577.794 576.65 575.17C576.65 572.546 575.194 570.882 572.57 570.882C569.946 570.882 568.49 572.546 568.49 575.17C568.49 577.794 569.946 579.458 572.57 579.458ZM572.57 578.162C571.05 578.162 570.186 577.17 570.186 575.17C570.186 573.186 571.05 572.178 572.57 572.178C574.09 572.178 574.954 573.186 574.954 575.17C574.954 577.17 574.09 578.162 572.57 578.162ZM585.215 579.298V573.842C585.215 571.842 584.303 570.882 582.415 570.882C581.039 570.882 580.239 571.522 579.791 572.482V571.042H578.175V579.298H579.871V574.69C579.871 573.186 580.671 572.258 581.903 572.258C583.071 572.258 583.519 572.898 583.519 574.146V579.298H585.215ZM593.183 579.298V574.178H598.959V572.802H593.183V569.362H599.471V567.906H591.407V579.298H593.183ZM603.585 579.458C604.961 579.458 605.745 578.818 606.209 577.874V579.298H607.825V571.042H606.129V575.65C606.129 577.154 605.329 578.082 604.097 578.082C602.929 578.082 602.481 577.442 602.481 576.194V571.042H600.785V576.498C600.785 578.498 601.697 579.458 603.585 579.458ZM616.706 579.298V573.842C616.706 571.842 615.794 570.882 613.906 570.882C612.53 570.882 611.73 571.522 611.282 572.482V571.042H609.666V579.298H611.362V574.69C611.362 573.186 612.162 572.258 613.394 572.258C614.562 572.258 615.01 572.898 615.01 574.146V579.298H616.706ZM621.827 578.978C623.155 578.978 624.067 578.434 624.531 577.41V579.122C624.531 580.722 623.731 581.458 622.355 581.458C621.107 581.458 620.371 580.834 620.259 579.682H618.675C618.675 581.426 619.875 582.594 622.275 582.594C624.851 582.594 626.227 581.25 626.227 578.69V571.042H624.611V572.578C624.147 571.506 623.267 570.882 621.827 570.882C619.603 570.882 618.227 572.514 618.227 574.93C618.227 577.346 619.603 578.978 621.827 578.978ZM622.227 577.762C620.851 577.762 619.923 576.802 619.923 574.93C619.923 573.074 620.851 572.098 622.227 572.098C623.587 572.098 624.531 573.074 624.531 574.93C624.531 576.802 623.587 577.762 622.227 577.762ZM629.764 579.298V571.042H628.068V579.298H629.764ZM628.916 569.602C629.556 569.602 629.924 569.218 629.924 568.706C629.924 568.194 629.556 567.794 628.916 567.794C628.26 567.794 627.908 568.194 627.908 568.706C627.908 569.218 628.26 569.602 628.916 569.602ZM635.989 579.458C638.213 579.458 639.605 577.874 639.605 575.17C639.605 572.466 638.213 570.882 635.989 570.882C634.661 570.882 633.765 571.426 633.301 572.45V567.906H631.605V579.298H633.221V577.778C633.669 578.834 634.565 579.458 635.989 579.458ZM635.605 578.162C634.229 578.162 633.301 577.25 633.301 575.17C633.301 573.106 634.229 572.178 635.605 572.178C636.965 572.178 637.909 573.106 637.909 575.17C637.909 577.25 636.965 578.162 635.605 578.162ZM642.822 579.298V567.906H641.126V579.298H642.822ZM648.423 579.458C650.567 579.458 651.767 578.418 652.135 576.738H650.583C650.327 577.682 649.591 578.29 648.423 578.29C647.015 578.29 646.087 577.442 646.039 575.49H652.279C652.295 575.33 652.311 575.186 652.311 575.026C652.311 572.658 650.935 570.882 648.327 570.882C645.719 570.882 644.343 572.626 644.343 575.17C644.343 577.794 645.799 579.458 648.423 579.458ZM648.327 572.05C649.607 572.05 650.439 572.818 650.615 574.37H646.039C646.215 572.818 647.047 572.05 648.327 572.05ZM662.849 579.298V569.362H666.401V567.906H657.537V569.362H661.073V579.298H662.849ZM670.346 579.458C672.97 579.458 674.426 577.794 674.426 575.17C674.426 572.546 672.97 570.882 670.346 570.882C667.722 570.882 666.266 572.546 666.266 575.17C666.266 577.794 667.722 579.458 670.346 579.458ZM670.346 578.162C668.826 578.162 667.962 577.17 667.962 575.17C667.962 573.186 668.826 572.178 670.346 572.178C671.866 572.178 672.73 573.186 672.73 575.17C672.73 577.17 671.866 578.162 670.346 578.162ZM683.695 579.298L680.207 574.338L683.535 571.042H681.567L677.647 574.978V567.906H675.951V579.298H677.647V576.898L679.055 575.522L681.727 579.298H683.695ZM688.013 579.458C690.157 579.458 691.357 578.418 691.725 576.738H690.173C689.917 577.682 689.181 578.29 688.013 578.29C686.605 578.29 685.677 577.442 685.629 575.49H691.869C691.885 575.33 691.901 575.186 691.901 575.026C691.901 572.658 690.525 570.882 687.917 570.882C685.309 570.882 683.933 572.626 683.933 575.17C683.933 577.794 685.389 579.458 688.013 579.458ZM687.917 572.05C689.197 572.05 690.029 572.818 690.205 574.37H685.629C685.805 572.818 686.637 572.05 687.917 572.05ZM700.455 579.298V573.842C700.455 571.842 699.543 570.882 697.655 570.882C696.279 570.882 695.479 571.522 695.031 572.482V571.042H693.415V579.298H695.111V574.69C695.111 573.186 695.911 572.258 697.143 572.258C698.311 572.258 698.759 572.898 698.759 574.146V579.298H700.455ZM705.56 579.458C708.152 579.458 709.144 578.322 709.144 576.898C709.144 575.394 708.12 574.786 706.44 574.546L704.92 574.322C704.28 574.226 703.896 573.986 703.896 573.314C703.896 572.514 704.344 572.018 705.544 572.018C706.952 572.018 707.208 572.706 707.288 573.474H708.92C708.92 572.018 708.024 570.882 705.56 570.882C703.096 570.882 702.2 572.018 702.2 573.442C702.2 574.818 702.936 575.426 704.664 575.666L706.184 575.89C706.968 576.002 707.448 576.338 707.448 576.994C707.448 577.698 707.016 578.322 705.576 578.322C704.104 578.322 703.688 577.682 703.608 576.738H701.976C701.976 578.322 702.968 579.458 705.56 579.458Z"
      fill="#19192C"
    />
    <path
      d="M622.672 549.298V530.786H619.916V545.242L610.374 530.786H607.228V549.298H609.984V534.842L619.526 549.298H622.672ZM629.042 549.298V540.978H638.428V538.742H629.042V533.152H639.26V530.786H626.156V549.298H629.042ZM650.087 549.298V533.152H655.859V530.786H641.455V533.152H647.201V549.298H650.087Z"
      fill=" #1A82FB"
    />
  </g>
  <rect
    x="533.531"
    y="509.298"
    width="199"
    height="95.888"
    rx="16"
    fill="#ffffff80"
  >
    <animate
      attributeName="fill"
      attributeType="XML"
      dur="2s"
      begin="0;nftCircle.end"
      values="#ffffff4D;#ffffff80;#ffffff80;#ffffff80;#ffffff80;#ffffff80;#ffffff80;#ffffff00;#ffffff00"
      repeatCount="indefinite"
      calcMode="linear"
    />
  </rect>
  <g filter="url(#filter5_dddd_1900_3101)">
    <rect
      x="94.5312"
      y="365.466"
      width="111"
      height="152.821"
      rx="16"
      fill="white"
    />
    <path
      d="M138.936 456.642C138.936 454.322 137.4 453.074 134.968 453.074H130.104V464.466H131.88V460.194H134.968C137.4 460.194 138.936 458.962 138.936 456.642ZM137.16 456.642C137.16 458.13 136.312 458.85 134.728 458.85H131.88V454.418H134.728C136.312 454.418 137.16 455.154 137.16 456.642ZM142.147 464.466V456.21H140.451V464.466H142.147ZM141.299 454.77C141.939 454.77 142.307 454.386 142.307 453.874C142.307 453.362 141.939 452.962 141.299 452.962C140.643 452.962 140.291 453.362 140.291 453.874C140.291 454.386 140.643 454.77 141.299 454.77ZM147.268 464.146C148.596 464.146 149.508 463.602 149.972 462.578V464.29C149.972 465.89 149.172 466.626 147.796 466.626C146.548 466.626 145.812 466.002 145.7 464.85H144.116C144.116 466.594 145.316 467.762 147.716 467.762C150.292 467.762 151.668 466.418 151.668 463.858V456.21H150.052V457.746C149.588 456.674 148.708 456.05 147.268 456.05C145.044 456.05 143.668 457.682 143.668 460.098C143.668 462.514 145.044 464.146 147.268 464.146ZM147.668 462.93C146.292 462.93 145.364 461.97 145.364 460.098C145.364 458.242 146.292 457.266 147.668 457.266C149.028 457.266 149.972 458.242 149.972 460.098C149.972 461.97 149.028 462.93 147.668 462.93ZM156.789 464.146C158.117 464.146 159.029 463.602 159.493 462.578V464.29C159.493 465.89 158.693 466.626 157.317 466.626C156.069 466.626 155.333 466.002 155.221 464.85H153.637C153.637 466.594 154.837 467.762 157.237 467.762C159.813 467.762 161.189 466.418 161.189 463.858V456.21H159.573V457.746C159.109 456.674 158.229 456.05 156.789 456.05C154.565 456.05 153.189 457.682 153.189 460.098C153.189 462.514 154.565 464.146 156.789 464.146ZM157.189 462.93C155.813 462.93 154.885 461.97 154.885 460.098C154.885 458.242 155.813 457.266 157.189 457.266C158.549 457.266 159.493 458.242 159.493 460.098C159.493 461.97 158.549 462.93 157.189 462.93ZM163.142 467.602H163.862C165.654 467.602 166.598 466.866 167.542 464.434L170.71 456.21H168.934L166.534 463.106L164.15 456.21H162.39L165.526 464.434C165.59 464.594 165.622 464.77 165.622 464.93C165.622 465.682 164.982 466.386 163.878 466.386H163.142V467.602ZM141.552 483.346C141.552 481.986 140.799 480.93 139.327 480.626C140.592 480.29 141.231 479.346 141.231 478.082C141.231 476.29 139.936 475.074 137.583 475.074H132.239V486.466H137.903C140.255 486.466 141.552 485.138 141.552 483.346ZM139.775 483.218C139.775 484.338 139.071 485.122 137.711 485.122H134.015V481.314H137.711C139.071 481.314 139.775 482.098 139.775 483.218ZM139.455 478.21C139.455 479.33 138.751 480.002 137.391 480.002H134.015V476.418H137.391C138.751 476.418 139.455 477.09 139.455 478.21ZM145.711 486.626C147.135 486.626 148.047 486.098 148.495 485.042C148.495 485.81 148.591 486.146 148.847 486.466H150.367C150.207 486.194 150.111 485.474 150.111 484.354V480.77C150.111 479.106 149.071 478.05 146.655 478.05C144.223 478.05 143.199 479.106 143.199 480.77H144.863C144.943 479.746 145.551 479.266 146.671 479.266C147.871 479.266 148.415 479.826 148.415 480.77C148.415 481.298 148.127 481.522 147.151 481.618L145.551 481.746C143.503 481.922 142.751 482.898 142.751 484.13C142.751 485.666 143.791 486.626 145.711 486.626ZM146.175 485.458C144.959 485.458 144.447 484.866 144.447 484.018C144.447 483.346 144.911 482.85 146.095 482.754L147.151 482.658C147.791 482.61 148.239 482.482 148.415 482.258V482.962C148.415 484.322 147.631 485.458 146.175 485.458ZM158.991 486.466V481.01C158.991 479.01 158.079 478.05 156.191 478.05C154.815 478.05 154.015 478.69 153.567 479.65V478.21H151.951V486.466H153.647V481.858C153.647 480.354 154.447 479.426 155.679 479.426C156.847 479.426 157.295 480.066 157.295 481.314V486.466H158.991ZM168.576 486.466L165.088 481.506L168.416 478.21H166.448L162.528 482.146V475.074H160.832V486.466H162.528V484.066L163.936 482.69L166.608 486.466H168.576Z"
      fill="#19192C"
    />
    <path
      fill-rule="evenodd"
      clip-rule="evenodd"
      d="M151.133 430.31C152.51 430.31 153.853 430.18 155.148 429.934V430.736C155.148 431.961 156.141 432.954 157.366 432.954H159.653C160.878 432.954 161.871 431.961 161.871 430.736V427.373C166.329 424.676 169.452 420.346 170.167 415.343L171.966 414.33C172.5 414.029 172.689 413.353 172.388 412.819C172.087 412.286 171.412 412.097 170.878 412.397L170.317 412.713C170.062 403.431 161.571 395.977 151.133 395.977C148.137 395.977 145.301 396.592 142.774 397.687C142.606 397.6 142.419 397.54 142.221 397.514L138.853 397.08C137.942 396.962 137.108 397.606 136.99 398.517L136.597 401.568C136.58 401.695 136.579 401.82 136.59 401.943C134.631 403.977 133.195 406.427 132.472 409.124H130.749C129.524 409.124 128.531 410.117 128.531 411.342V414.945C128.531 416.17 129.524 417.163 130.749 417.163H132.472C133.562 421.23 136.271 424.733 139.954 427.099V430.736C139.954 431.961 140.948 432.954 142.172 432.954H144.46C145.684 432.954 146.678 431.961 146.678 430.736V429.845C148.107 430.149 149.599 430.31 151.133 430.31ZM151.699 421.756V424.28H150.543V421.756C146.39 421.591 144.408 419.632 144.408 416.211H146.933C147.169 418.452 148.089 419.609 150.543 419.774V414.064L149.552 413.899C146.084 413.403 144.833 412.153 144.833 409.605C144.833 406.75 146.697 404.721 150.543 404.532V402.007H151.699V404.532C155.568 404.697 157.432 406.726 157.432 409.841H154.979C154.742 407.811 153.799 406.703 151.699 406.514V411.964L152.737 412.106C156.064 412.577 157.857 413.852 157.857 416.565C157.857 419.609 155.851 421.591 151.699 421.756ZM155.238 416.73C155.238 415.503 154.553 414.63 151.888 414.253L151.699 414.229V419.797C154.2 419.656 155.238 418.476 155.238 416.73ZM150.543 406.514C148.396 406.679 147.452 407.811 147.452 409.463C147.452 410.737 148.042 411.421 150.401 411.752L150.543 411.775V406.514Z"
      fill=" #1A82FB"
    />
  </g>
  <rect
    x="94.5312"
    y="365.466"
    width="111"
    height="152.821"
    rx="16"
    fill="#ffffff80"
  >
    <animate
      attributeName="fill"
      attributeType="XML"
      dur="3s"
      begin="0;piggybankCircle.end"
      values="#ffffff4D;#ffffff80;#ffffff80;#ffffff80;#ffffff80;#ffffff80;#ffffff80;#ffffff80;#ffffff80;#ffffff80;#ffffff80;#ffffff80;#ffffff00;#ffffff00"
      repeatCount="indefinite"
      calcMode="linear"
    />
  </rect>
  <g filter="url(#filter6_dddd_1900_3101)">
    <rect
      x="152.531"
      y="175.689"
      width="116"
      height="116.863"
      rx="16"
      fill="white"
    />
    <path
      d="M183.761 267.689V266.233H177.473V262.569H183.249V261.193H177.473V257.753H183.761V256.297H175.697V267.689H183.761ZM192.654 267.689L189.63 263.401L192.494 259.433H190.606L188.654 262.185L186.686 259.433H184.814L187.678 263.401L184.654 267.689H186.526L188.654 264.729L190.766 267.689H192.654ZM196.886 267.849C199.398 267.849 200.63 266.281 200.63 264.585H199.062C198.886 265.897 198.118 266.553 196.886 266.553C195.446 266.553 194.582 265.561 194.582 263.561C194.582 261.577 195.446 260.569 196.886 260.569C198.294 260.569 198.902 261.449 199.062 262.473H200.63C200.63 260.937 199.494 259.273 196.886 259.273C194.342 259.273 192.886 260.937 192.886 263.561C192.886 266.185 194.342 267.849 196.886 267.849ZM209.032 267.689V262.233C209.032 260.233 208.12 259.273 206.232 259.273C204.92 259.273 204.136 259.849 203.688 260.745V256.297H201.992V267.689H203.688V263.081C203.688 261.577 204.488 260.649 205.72 260.649C206.888 260.649 207.336 261.289 207.336 262.537V267.689H209.032ZM213.513 267.849C214.937 267.849 215.849 267.321 216.297 266.265C216.297 267.033 216.393 267.369 216.649 267.689H218.169C218.009 267.417 217.913 266.697 217.913 265.577V261.993C217.913 260.329 216.873 259.273 214.457 259.273C212.025 259.273 211.001 260.329 211.001 261.993H212.665C212.745 260.969 213.353 260.489 214.473 260.489C215.673 260.489 216.217 261.049 216.217 261.993C216.217 262.521 215.929 262.745 214.953 262.841L213.353 262.969C211.305 263.145 210.553 264.121 210.553 265.353C210.553 266.889 211.593 267.849 213.513 267.849ZM213.977 266.681C212.761 266.681 212.249 266.089 212.249 265.241C212.249 264.569 212.713 264.073 213.897 263.977L214.953 263.881C215.593 263.833 216.041 263.705 216.217 263.481V264.185C216.217 265.545 215.433 266.681 213.977 266.681ZM226.794 267.689V262.233C226.794 260.233 225.882 259.273 223.994 259.273C222.618 259.273 221.818 259.913 221.37 260.873V259.433H219.754V267.689H221.45V263.081C221.45 261.577 222.25 260.649 223.482 260.649C224.65 260.649 225.098 261.289 225.098 262.537V267.689H226.794ZM231.914 267.369C233.242 267.369 234.154 266.825 234.618 265.801V267.513C234.618 269.113 233.818 269.849 232.442 269.849C231.194 269.849 230.458 269.225 230.346 268.073H228.762C228.762 269.817 229.962 270.985 232.362 270.985C234.938 270.985 236.314 269.641 236.314 267.081V259.433H234.698V260.969C234.234 259.897 233.354 259.273 231.914 259.273C229.69 259.273 228.314 260.905 228.314 263.321C228.314 265.737 229.69 267.369 231.914 267.369ZM232.314 266.153C230.938 266.153 230.01 265.193 230.01 263.321C230.01 261.465 230.938 260.489 232.314 260.489C233.674 260.489 234.618 261.465 234.618 263.321C234.618 265.193 233.674 266.153 232.314 266.153ZM241.916 267.849C244.06 267.849 245.26 266.809 245.628 265.129H244.076C243.82 266.073 243.084 266.681 241.916 266.681C240.508 266.681 239.58 265.833 239.532 263.881H245.772C245.788 263.721 245.804 263.577 245.804 263.417C245.804 261.049 244.428 259.273 241.82 259.273C239.212 259.273 237.836 261.017 237.836 263.561C237.836 266.185 239.292 267.849 241.916 267.849ZM241.82 260.441C243.1 260.441 243.932 261.209 244.108 262.761H239.532C239.708 261.209 240.54 260.441 241.82 260.441Z"
      fill="#19192C"
    />
    <path
      d="M190.513 206.105C190.402 206.105 190.313 206.195 190.313 206.305L190.313 213.126C190.313 213.237 190.402 213.326 190.513 213.326H231.265C231.443 213.326 231.532 213.111 231.406 212.985L216.089 197.668C215.963 197.542 215.748 197.631 215.748 197.809V205.905C215.748 206.016 215.658 206.105 215.548 206.105H190.513Z"
      fill=" #1A82FB"
    />
    <path
      d="M231.55 229.273C231.66 229.273 231.75 229.183 231.75 229.073L231.75 222.252C231.75 222.142 231.66 222.052 231.55 222.052L190.798 222.052C190.62 222.052 190.53 222.268 190.656 222.394L205.973 237.711C206.099 237.837 206.315 237.748 206.315 237.569L206.315 229.473C206.315 229.362 206.404 229.273 206.515 229.273L231.55 229.273Z"
      fill=" #1A82FB"
    />
  </g>
  <rect
    x="152.531"
    y="175.689"
    width="116"
    height="116.863"
    rx="16"
    fill="#ffffff80"
  >
    <animate
      attributeName="fill"
      attributeType="XML"
      dur="2s"
      begin="0;exchangeCircle.end"
      values="#ffffff4D;#ffffff80;#ffffff80;#ffffff80;#ffffff80;#ffffff80;#ffffff80;#ffffff80;#ffffff80;#ffffff80;#ffffff80;#ffffff80;#ffffff80;#ffffff80;#ffffff80;#ffffff00;#ffffff00"
      repeatCount="indefinite"
      calcMode="linear"
    />
  </rect>
  <g filter="url(#filter7_dddd_1900_3101)">
    <rect
      x="372.531"
      y="104"
      width="201"
      height="118.861"
      rx="16"
      fill="white"
    />
    <path
      d="M418.667 193.559V182.167H415.883L412.491 190.919L409.099 182.167H406.315V193.559H408.011V183.799L411.723 193.559H413.243L416.971 183.799V193.559H418.667ZM422.311 193.559V185.303H420.615V193.559H422.311ZM421.463 183.863C422.103 183.863 422.471 183.479 422.471 182.967C422.471 182.455 422.103 182.055 421.463 182.055C420.807 182.055 420.455 182.455 420.455 182.967C420.455 183.479 420.807 183.863 421.463 183.863ZM425.848 193.559V182.167H424.152V193.559H425.848ZM431.449 193.719C433.593 193.719 434.793 192.679 435.161 190.999H433.609C433.353 191.943 432.617 192.551 431.449 192.551C430.041 192.551 429.113 191.703 429.065 189.751H435.305C435.321 189.591 435.337 189.447 435.337 189.287C435.337 186.919 433.961 185.143 431.353 185.143C428.745 185.143 427.369 186.887 427.369 189.431C427.369 192.055 428.825 193.719 431.449 193.719ZM431.353 186.311C432.633 186.311 433.465 187.079 433.641 188.631H429.065C429.241 187.079 430.073 186.311 431.353 186.311ZM440.115 193.719C442.707 193.719 443.699 192.583 443.699 191.159C443.699 189.655 442.675 189.047 440.995 188.807L439.475 188.583C438.835 188.487 438.451 188.247 438.451 187.575C438.451 186.775 438.899 186.279 440.099 186.279C441.507 186.279 441.763 186.967 441.843 187.735H443.475C443.475 186.279 442.579 185.143 440.115 185.143C437.651 185.143 436.755 186.279 436.755 187.703C436.755 189.079 437.491 189.687 439.219 189.927L440.739 190.151C441.523 190.263 442.003 190.599 442.003 191.255C442.003 191.959 441.571 192.583 440.131 192.583C438.659 192.583 438.243 191.943 438.163 190.999H436.531C436.531 192.583 437.523 193.719 440.115 193.719ZM448.099 193.639C448.435 193.639 449.027 193.591 449.363 193.559V192.407L448.483 192.423C447.731 192.423 447.459 192.215 447.459 191.495V186.519H449.363V185.303H447.459V182.807H445.763V185.303H444.419V186.519H445.763V191.447C445.763 193.127 446.371 193.639 448.099 193.639ZM454.153 193.719C456.777 193.719 458.233 192.055 458.233 189.431C458.233 186.807 456.777 185.143 454.153 185.143C451.529 185.143 450.073 186.807 450.073 189.431C450.073 192.055 451.529 193.719 454.153 193.719ZM454.153 192.423C452.633 192.423 451.769 191.431 451.769 189.431C451.769 187.447 452.633 186.439 454.153 186.439C455.673 186.439 456.537 187.447 456.537 189.431C456.537 191.431 455.673 192.423 454.153 192.423ZM466.798 193.559V188.103C466.798 186.103 465.886 185.143 463.998 185.143C462.622 185.143 461.822 185.783 461.374 186.743V185.303H459.758V193.559H461.454V188.951C461.454 187.447 462.254 186.519 463.486 186.519C464.654 186.519 465.102 187.159 465.102 188.407V193.559H466.798ZM472.399 193.719C474.543 193.719 475.743 192.679 476.111 190.999H474.559C474.303 191.943 473.567 192.551 472.399 192.551C470.991 192.551 470.063 191.703 470.015 189.751H476.255C476.271 189.591 476.287 189.447 476.287 189.287C476.287 186.919 474.911 185.143 472.303 185.143C469.695 185.143 468.319 186.887 468.319 189.431C468.319 192.055 469.775 193.719 472.399 193.719ZM472.303 186.311C473.583 186.311 474.415 187.079 474.591 188.631H470.015C470.191 187.079 471.023 186.311 472.303 186.311ZM490.985 185.735C490.985 183.415 489.449 182.167 487.017 182.167H482.153V193.559H483.929V189.287H487.017C489.449 189.287 490.985 188.055 490.985 185.735ZM489.209 185.735C489.209 187.223 488.361 187.943 486.777 187.943H483.929V183.511H486.777C488.361 183.511 489.209 184.247 489.209 185.735ZM494.655 193.719C496.079 193.719 496.991 193.191 497.439 192.135C497.439 192.903 497.535 193.239 497.791 193.559H499.311C499.151 193.287 499.055 192.567 499.055 191.447V187.863C499.055 186.199 498.015 185.143 495.599 185.143C493.167 185.143 492.143 186.199 492.143 187.863H493.807C493.887 186.839 494.495 186.359 495.615 186.359C496.815 186.359 497.359 186.919 497.359 187.863C497.359 188.391 497.071 188.615 496.095 188.711L494.495 188.839C492.447 189.015 491.695 189.991 491.695 191.223C491.695 192.759 492.735 193.719 494.655 193.719ZM495.119 192.551C493.903 192.551 493.391 191.959 493.391 191.111C493.391 190.439 493.855 189.943 495.039 189.847L496.095 189.751C496.735 189.703 497.183 189.575 497.359 189.351V190.055C497.359 191.415 496.575 192.551 495.119 192.551ZM500.617 196.695H501.337C503.129 196.695 504.073 195.959 505.017 193.527L508.185 185.303H506.409L504.009 192.199L501.625 185.303H499.865L503.001 193.527C503.065 193.687 503.097 193.863 503.097 194.023C503.097 194.775 502.457 195.479 501.353 195.479H500.617V196.695ZM520.458 193.559V188.103C520.458 186.103 519.642 185.143 517.978 185.143C516.842 185.143 515.978 185.751 515.562 186.807C515.258 185.703 514.522 185.143 513.29 185.143C512.154 185.143 511.386 185.783 511.002 186.743V185.303H509.386V193.559H511.018V188.903C511.018 187.399 511.77 186.519 512.762 186.519C513.69 186.519 514.09 187.111 514.09 188.359V193.559H515.722V188.903C515.722 187.399 516.49 186.519 517.482 186.519C518.426 186.519 518.826 187.111 518.826 188.359V193.559H520.458ZM526.057 193.719C528.201 193.719 529.401 192.679 529.769 190.999H528.217C527.961 191.943 527.225 192.551 526.057 192.551C524.649 192.551 523.721 191.703 523.673 189.751H529.913C529.929 189.591 529.945 189.447 529.945 189.287C529.945 186.919 528.569 185.143 525.961 185.143C523.353 185.143 521.977 186.887 521.977 189.431C521.977 192.055 523.433 193.719 526.057 193.719ZM525.961 186.311C527.241 186.311 528.073 187.079 528.249 188.631H523.673C523.849 187.079 524.681 186.311 525.961 186.311ZM538.499 193.559V188.103C538.499 186.103 537.587 185.143 535.699 185.143C534.323 185.143 533.523 185.783 533.075 186.743V185.303H531.459V193.559H533.155V188.951C533.155 187.447 533.955 186.519 535.187 186.519C536.355 186.519 536.803 187.159 536.803 188.407V193.559H538.499ZM543.224 193.639C543.56 193.639 544.152 193.591 544.488 193.559V192.407L543.608 192.423C542.856 192.423 542.584 192.215 542.584 191.495V186.519H544.488V185.303H542.584V182.807H540.888V185.303H539.544V186.519H540.888V191.447C540.888 193.127 541.496 193.639 543.224 193.639Z"
      fill="#19192C"
    />
    <path
      fill-rule="evenodd"
      clip-rule="evenodd"
      d="M452.777 126.441C452.501 126.441 452.277 126.665 452.277 126.941V137.236C452.277 137.512 452.501 137.736 452.777 137.736H460.989C461.848 134.512 464.682 132.344 469.59 132.103V128.175H471.389V132.103C476.238 132.31 479.063 134.398 479.978 137.736H488.244C488.52 137.736 488.744 137.512 488.744 137.236V126.941C488.744 126.665 488.52 126.441 488.244 126.441H452.777ZM476.42 139.853C476.447 140.018 476.471 140.188 476.491 140.361H480.309C480.309 140.19 480.305 140.02 480.298 139.853H491.331C491.607 139.853 491.831 140.077 491.831 140.353V150.647C491.831 150.923 491.607 151.147 491.331 151.147H480.964C480.968 151.04 480.969 150.932 480.969 150.823C480.969 146.601 478.18 144.619 473.004 143.885L471.389 143.665V139.853H476.42ZM475.759 137.736C474.979 136.234 473.593 135.384 471.389 135.186V137.736H475.759ZM469.59 137.736V135.186C467.232 135.367 465.807 136.299 465.173 137.736H469.59ZM460.709 139.853H449.691C449.415 139.853 449.191 140.077 449.191 140.353V150.647C449.191 150.923 449.415 151.147 449.691 151.147H460.076C460.057 150.863 460.047 150.571 460.047 150.272H463.974C464.006 150.577 464.047 150.868 464.096 151.147H469.59V146.932L468.049 146.675C462.653 145.904 460.708 143.959 460.708 139.994C460.708 139.947 460.708 139.9 460.709 139.853ZM469.59 153.265H464.778C465.601 154.81 467.079 155.646 469.59 155.815V153.265ZM460.441 153.265H447.01C446.734 153.265 446.51 153.489 446.51 153.765V164.059C446.51 164.335 446.734 164.559 447.01 164.559H494.01C494.286 164.559 494.51 164.335 494.51 164.059V153.765C494.51 153.489 494.286 153.265 494.01 153.265H480.65C479.706 156.598 476.659 158.688 471.389 158.898V162.825H469.59V158.898C464.46 158.694 461.459 156.73 460.441 153.265ZM476.442 153.265C475.722 154.751 474.114 155.697 471.389 155.851V153.265H476.442ZM476.895 151.147H471.389V147.189L471.683 147.225C475.83 147.813 476.895 149.171 476.895 151.08C476.895 151.102 476.895 151.125 476.895 151.147ZM464.782 139.853H469.59V143.371L469.37 143.335C465.749 142.828 464.807 141.785 464.782 139.853Z"
      fill=" #1A82FB"
    />
  </g>
  <rect
    x="372.531"
    y="104"
    width="201"
    height="118.861"
    rx="16"
    fill="#ffffff80"
  >
    <animate
      attributeName="fill"
      attributeType="XML"
      dur="2.6s"
      begin="0;milestoneCircle.end"
      values="#ffffff4D;#ffffff80;#ffffff80;#ffffff80;#ffffff80;#ffffff80;#ffffff80;#ffffff80;#ffffff00;#ffffff4D"
      repeatCount="indefinite"
      calcMode="linear"
    />
  </rect>
  <defs>
    <filter
      id="filter0_d_1900_3101"
      x="338.531"
      y="321"
      width="160"
      height="193"
      filterUnits="userSpaceOnUse"
      color-interpolation-filters="sRGB"
    >
      <feFlood flood-opacity="0" result="BackgroundImageFix" />
      <feColorMatrix
        in="SourceAlpha"
        type="matrix"
        values="0 0 0 0 0 0 0 0 0 0 0 0 0 0 0 0 0 0 127 0"
        result="hardAlpha"
      />
      <feMorphology
        radius="4"
        operator="erode"
        in="SourceAlpha"
        result="effect1_dropShadow_1900_3101"
      />
      <feOffset />
      <feGaussianBlur stdDeviation="12" />
      <feComposite in2="hardAlpha" operator="out" />
      <feColorMatrix
        type="matrix"
        values="0 0 0 0 0 0 0 0 0 0 0 0 0 0 0 0 0 0 0.14 0"
      />
      <feBlend
        mode="normal"
        in2="BackgroundImageFix"
        result="effect1_dropShadow_1900_3101"
      />
      <feBlend
        mode="normal"
        in="SourceGraphic"
        in2="effect1_dropShadow_1900_3101"
        result="shape"
      />
    </filter>
    <filter
      id="filter1_dddd_1900_3101"
      x="554.031"
      y="213.572"
      width="233"
      height="191.864"
      filterUnits="userSpaceOnUse"
      color-interpolation-filters="sRGB"
    >
      <feFlood flood-opacity="0" result="BackgroundImageFix" />
      <feColorMatrix
        in="SourceAlpha"
        type="matrix"
        values="0 0 0 0 0 0 0 0 0 0 0 0 0 0 0 0 0 0 127 0"
        result="hardAlpha"
      />
      <feOffset />
      <feColorMatrix
        type="matrix"
        values="0 0 0 0 0 0 0 0 0 0 0 0 0 0 0 0 0 0 0.03 0"
      />
      <feBlend
        mode="normal"
        in2="BackgroundImageFix"
        result="effect1_dropShadow_1900_3101"
      />
      <feColorMatrix
        in="SourceAlpha"
        type="matrix"
        values="0 0 0 0 0 0 0 0 0 0 0 0 0 0 0 0 0 0 127 0"
        result="hardAlpha"
      />
      <feOffset dx="6" dy="-3" />
      <feGaussianBlur stdDeviation="7" />
      <feColorMatrix
        type="matrix"
        values="0 0 0 0 0 0 0 0 0 0 0 0 0 0 0 0 0 0 0.03 0"
      />
      <feBlend
        mode="normal"
        in2="effect1_dropShadow_1900_3101"
        result="effect2_dropShadow_1900_3101"
      />
      <feColorMatrix
        in="SourceAlpha"
        type="matrix"
        values="0 0 0 0 0 0 0 0 0 0 0 0 0 0 0 0 0 0 127 0"
        result="hardAlpha"
      />
      <feOffset dx="23" dy="-12" />
      <feGaussianBlur stdDeviation="13" />
      <feColorMatrix
        type="matrix"
        values="0 0 0 0 0 0 0 0 0 0 0 0 0 0 0 0 0 0 0.03 0"
      />
      <feBlend
        mode="normal"
        in2="effect2_dropShadow_1900_3101"
        result="effect3_dropShadow_1900_3101"
      />
      <feColorMatrix
        in="SourceAlpha"
        type="matrix"
        values="0 0 0 0 0 0 0 0 0 0 0 0 0 0 0 0 0 0 127 0"
        result="hardAlpha"
      />
      <feOffset dx="52" dy="-26" />
      <feGaussianBlur stdDeviation="17.5" />
      <feColorMatrix
        type="matrix"
        values="0 0 0 0 0 0 0 0 0 0 0 0 0 0 0 0 0 0 0.02 0"
      />
      <feBlend
        mode="normal"
        in2="effect3_dropShadow_1900_3101"
        result="effect4_dropShadow_1900_3101"
      />
      <feBlend
        mode="normal"
        in="SourceGraphic"
        in2="effect4_dropShadow_1900_3101"
        result="shape"
      />
    </filter>
    <filter
      id="filter2_dddd_1900_3101"
      x="101.254"
      y="584.104"
      width="183"
      height="185.864"
      filterUnits="userSpaceOnUse"
      color-interpolation-filters="sRGB"
    >
      <feFlood flood-opacity="0" result="BackgroundImageFix" />
      <feColorMatrix
        in="SourceAlpha"
        type="matrix"
        values="0 0 0 0 0 0 0 0 0 0 0 0 0 0 0 0 0 0 127 0"
        result="hardAlpha"
      />
      <feOffset />
      <feColorMatrix
        type="matrix"
        values="0 0 0 0 0 0 0 0 0 0 0 0 0 0 0 0 0 0 0.03 0"
      />
      <feBlend
        mode="normal"
        in2="BackgroundImageFix"
        result="effect1_dropShadow_1900_3101"
      />
      <feColorMatrix
        in="SourceAlpha"
        type="matrix"
        values="0 0 0 0 0 0 0 0 0 0 0 0 0 0 0 0 0 0 127 0"
        result="hardAlpha"
      />
      <feOffset dx="-4" dy="4" />
      <feGaussianBlur stdDeviation="5.5" />
      <feColorMatrix
        type="matrix"
        values="0 0 0 0 0 0 0 0 0 0 0 0 0 0 0 0 0 0 0.03 0"
      />
      <feBlend
        mode="normal"
        in2="effect1_dropShadow_1900_3101"
        result="effect2_dropShadow_1900_3101"
      />
      <feColorMatrix
        in="SourceAlpha"
        type="matrix"
        values="0 0 0 0 0 0 0 0 0 0 0 0 0 0 0 0 0 0 127 0"
        result="hardAlpha"
      />
      <feOffset dx="-14" dy="15" />
      <feGaussianBlur stdDeviation="10.5" />
      <feColorMatrix
        type="matrix"
        values="0 0 0 0 0 0 0 0 0 0 0 0 0 0 0 0 0 0 0.03 0"
      />
      <feBlend
        mode="normal"
        in2="effect2_dropShadow_1900_3101"
        result="effect3_dropShadow_1900_3101"
      />
      <feColorMatrix
        in="SourceAlpha"
        type="matrix"
        values="0 0 0 0 0 0 0 0 0 0 0 0 0 0 0 0 0 0 127 0"
        result="hardAlpha"
      />
      <feOffset dx="-32" dy="34" />
      <feGaussianBlur stdDeviation="14" />
      <feColorMatrix
        type="matrix"
        values="0 0 0 0 0 0 0 0 0 0 0 0 0 0 0 0 0 0 0.02 0"
      />
      <feBlend
        mode="normal"
        in2="effect3_dropShadow_1900_3101"
        result="effect4_dropShadow_1900_3101"
      />
      <feBlend
        mode="normal"
        in="SourceGraphic"
        in2="effect4_dropShadow_1900_3101"
        result="shape"
      />
    </filter>
    <filter
      id="filter3_dddd_1900_3101"
      x="327.531"
      y="585.197"
      width="204"
      height="298.803"
      filterUnits="userSpaceOnUse"
      color-interpolation-filters="sRGB"
    >
      <feFlood flood-opacity="0" result="BackgroundImageFix" />
      <feColorMatrix
        in="SourceAlpha"
        type="matrix"
        values="0 0 0 0 0 0 0 0 0 0 0 0 0 0 0 0 0 0 127 0"
        result="hardAlpha"
      />
      <feOffset />
      <feColorMatrix
        type="matrix"
        values="0 0 0 0 0 0 0 0 0 0 0 0 0 0 0 0 0 0 0.03 0"
      />
      <feBlend
        mode="normal"
        in2="BackgroundImageFix"
        result="effect1_dropShadow_1900_3101"
      />
      <feColorMatrix
        in="SourceAlpha"
        type="matrix"
        values="0 0 0 0 0 0 0 0 0 0 0 0 0 0 0 0 0 0 127 0"
        result="hardAlpha"
      />
      <feOffset dy="8" />
      <feGaussianBlur stdDeviation="9" />
      <feColorMatrix
        type="matrix"
        values="0 0 0 0 0 0 0 0 0 0 0 0 0 0 0 0 0 0 0.03 0"
      />
      <feBlend
        mode="normal"
        in2="effect1_dropShadow_1900_3101"
        result="effect2_dropShadow_1900_3101"
      />
      <feColorMatrix
        in="SourceAlpha"
        type="matrix"
        values="0 0 0 0 0 0 0 0 0 0 0 0 0 0 0 0 0 0 127 0"
        result="hardAlpha"
      />
      <feOffset dy="33" />
      <feGaussianBlur stdDeviation="16.5" />
      <feColorMatrix
        type="matrix"
        values="0 0 0 0 0 0 0 0 0 0 0 0 0 0 0 0 0 0 0.03 0"
      />
      <feBlend
        mode="normal"
        in2="effect2_dropShadow_1900_3101"
        result="effect3_dropShadow_1900_3101"
      />
      <feColorMatrix
        in="SourceAlpha"
        type="matrix"
        values="0 0 0 0 0 0 0 0 0 0 0 0 0 0 0 0 0 0 127 0"
        result="hardAlpha"
      />
      <feOffset dy="75" />
      <feGaussianBlur stdDeviation="22.5" />
      <feColorMatrix
        type="matrix"
        values="0 0 0 0 0 0 0 0 0 0 0 0 0 0 0 0 0 0 0.02 0"
      />
      <feBlend
        mode="normal"
        in2="effect3_dropShadow_1900_3101"
        result="effect4_dropShadow_1900_3101"
      />
      <feBlend
        mode="normal"
        in="SourceGraphic"
        in2="effect4_dropShadow_1900_3101"
        result="shape"
      />
    </filter>
    <filter
      id="filter4_dddd_1900_3101"
      x="525.531"
      y="497.298"
      width="292"
      height="174.888"
      filterUnits="userSpaceOnUse"
      color-interpolation-filters="sRGB"
    >
      <feFlood flood-opacity="0" result="BackgroundImageFix" />
      <feColorMatrix
        in="SourceAlpha"
        type="matrix"
        values="0 0 0 0 0 0 0 0 0 0 0 0 0 0 0 0 0 0 127 0"
        result="hardAlpha"
      />
      <feOffset />
      <feColorMatrix
        type="matrix"
        values="0 0 0 0 0 0 0 0 0 0 0 0 0 0 0 0 0 0 0.03 0"
      />
      <feBlend
        mode="normal"
        in2="BackgroundImageFix"
        result="effect1_dropShadow_1900_3101"
      />
      <feColorMatrix
        in="SourceAlpha"
        type="matrix"
        values="0 0 0 0 0 0 0 0 0 0 0 0 0 0 0 0 0 0 127 0"
        result="hardAlpha"
      />
      <feOffset dx="6" dy="4" />
      <feGaussianBlur stdDeviation="7" />
      <feColorMatrix
        type="matrix"
        values="0 0 0 0 0 0 0 0 0 0 0 0 0 0 0 0 0 0 0.03 0"
      />
      <feBlend
        mode="normal"
        in2="effect1_dropShadow_1900_3101"
        result="effect2_dropShadow_1900_3101"
      />
      <feColorMatrix
        in="SourceAlpha"
        type="matrix"
        values="0 0 0 0 0 0 0 0 0 0 0 0 0 0 0 0 0 0 127 0"
        result="hardAlpha"
      />
      <feOffset dx="22" dy="14" />
      <feGaussianBlur stdDeviation="13" />
      <feColorMatrix
        type="matrix"
        values="0 0 0 0 0 0 0 0 0 0 0 0 0 0 0 0 0 0 0.03 0"
      />
      <feBlend
        mode="normal"
        in2="effect2_dropShadow_1900_3101"
        result="effect3_dropShadow_1900_3101"
      />
      <feColorMatrix
        in="SourceAlpha"
        type="matrix"
        values="0 0 0 0 0 0 0 0 0 0 0 0 0 0 0 0 0 0 127 0"
        result="hardAlpha"
      />
      <feOffset dx="50" dy="32" />
      <feGaussianBlur stdDeviation="17.5" />
      <feColorMatrix
        type="matrix"
        values="0 0 0 0 0 0 0 0 0 0 0 0 0 0 0 0 0 0 0.02 0"
      />
      <feBlend
        mode="normal"
        in2="effect3_dropShadow_1900_3101"
        result="effect4_dropShadow_1900_3101"
      />
      <feBlend
        mode="normal"
        in="SourceGraphic"
        in2="effect4_dropShadow_1900_3101"
        result="shape"
      />
    </filter>
    <filter
      id="filter5_dddd_1900_3101"
      x="0.53125"
      y="334.466"
      width="212"
      height="222.822"
      filterUnits="userSpaceOnUse"
      color-interpolation-filters="sRGB"
    >
      <feFlood flood-opacity="0" result="BackgroundImageFix" />
      <feColorMatrix
        in="SourceAlpha"
        type="matrix"
        values="0 0 0 0 0 0 0 0 0 0 0 0 0 0 0 0 0 0 127 0"
        result="hardAlpha"
      />
      <feOffset />
      <feColorMatrix
        type="matrix"
        values="0 0 0 0 0 0 0 0 0 0 0 0 0 0 0 0 0 0 0.03 0"
      />
      <feBlend
        mode="normal"
        in2="BackgroundImageFix"
        result="effect1_dropShadow_1900_3101"
      />
      <feColorMatrix
        in="SourceAlpha"
        type="matrix"
        values="0 0 0 0 0 0 0 0 0 0 0 0 0 0 0 0 0 0 127 0"
        result="hardAlpha"
      />
      <feOffset dx="-7" />
      <feGaussianBlur stdDeviation="7" />
      <feColorMatrix
        type="matrix"
        values="0 0 0 0 0 0 0 0 0 0 0 0 0 0 0 0 0 0 0.03 0"
      />
      <feBlend
        mode="normal"
        in2="effect1_dropShadow_1900_3101"
        result="effect2_dropShadow_1900_3101"
      />
      <feColorMatrix
        in="SourceAlpha"
        type="matrix"
        values="0 0 0 0 0 0 0 0 0 0 0 0 0 0 0 0 0 0 127 0"
        result="hardAlpha"
      />
      <feOffset dx="-26" dy="2" />
      <feGaussianBlur stdDeviation="13" />
      <feColorMatrix
        type="matrix"
        values="0 0 0 0 0 0 0 0 0 0 0 0 0 0 0 0 0 0 0.03 0"
      />
      <feBlend
        mode="normal"
        in2="effect2_dropShadow_1900_3101"
        result="effect3_dropShadow_1900_3101"
      />
      <feColorMatrix
        in="SourceAlpha"
        type="matrix"
        values="0 0 0 0 0 0 0 0 0 0 0 0 0 0 0 0 0 0 127 0"
        result="hardAlpha"
      />
      <feOffset dx="-59" dy="4" />
      <feGaussianBlur stdDeviation="17.5" />
      <feColorMatrix
        type="matrix"
        values="0 0 0 0 0 0 0 0 0 0 0 0 0 0 0 0 0 0 0.02 0"
      />
      <feBlend
        mode="normal"
        in2="effect3_dropShadow_1900_3101"
        result="effect4_dropShadow_1900_3101"
      />
      <feBlend
        mode="normal"
        in="SourceGraphic"
        in2="effect4_dropShadow_1900_3101"
        result="shape"
      />
    </filter>
    <filter
      id="filter6_dddd_1900_3101"
      x="76.5312"
      y="100.689"
      width="201"
      height="201.864"
      filterUnits="userSpaceOnUse"
      color-interpolation-filters="sRGB"
    >
      <feFlood flood-opacity="0" result="BackgroundImageFix" />
      <feColorMatrix
        in="SourceAlpha"
        type="matrix"
        values="0 0 0 0 0 0 0 0 0 0 0 0 0 0 0 0 0 0 127 0"
        result="hardAlpha"
      />
      <feOffset />
      <feColorMatrix
        type="matrix"
        values="0 0 0 0 0 0 0 0 0 0 0 0 0 0 0 0 0 0 0.03 0"
      />
      <feBlend
        mode="normal"
        in2="BackgroundImageFix"
        result="effect1_dropShadow_1900_3101"
      />
      <feColorMatrix
        in="SourceAlpha"
        type="matrix"
        values="0 0 0 0 0 0 0 0 0 0 0 0 0 0 0 0 0 0 127 0"
        result="hardAlpha"
      />
      <feOffset dx="-5" dy="-4" />
      <feGaussianBlur stdDeviation="7" />
      <feColorMatrix
        type="matrix"
        values="0 0 0 0 0 0 0 0 0 0 0 0 0 0 0 0 0 0 0.03 0"
      />
      <feBlend
        mode="normal"
        in2="effect1_dropShadow_1900_3101"
        result="effect2_dropShadow_1900_3101"
      />
      <feColorMatrix
        in="SourceAlpha"
        type="matrix"
        values="0 0 0 0 0 0 0 0 0 0 0 0 0 0 0 0 0 0 127 0"
        result="hardAlpha"
      />
      <feOffset dx="-18" dy="-18" />
      <feGaussianBlur stdDeviation="13" />
      <feColorMatrix
        type="matrix"
        values="0 0 0 0 0 0 0 0 0 0 0 0 0 0 0 0 0 0 0.03 0"
      />
      <feBlend
        mode="normal"
        in2="effect2_dropShadow_1900_3101"
        result="effect3_dropShadow_1900_3101"
      />
      <feColorMatrix
        in="SourceAlpha"
        type="matrix"
        values="0 0 0 0 0 0 0 0 0 0 0 0 0 0 0 0 0 0 127 0"
        result="hardAlpha"
      />
      <feOffset dx="-41" dy="-40" />
      <feGaussianBlur stdDeviation="17.5" />
      <feColorMatrix
        type="matrix"
        values="0 0 0 0 0 0 0 0 0 0 0 0 0 0 0 0 0 0 0.02 0"
      />
      <feBlend
        mode="normal"
        in2="effect3_dropShadow_1900_3101"
        result="effect4_dropShadow_1900_3101"
      />
      <feBlend
        mode="normal"
        in="SourceGraphic"
        in2="effect4_dropShadow_1900_3101"
        result="shape"
      />
    </filter>
    <filter
      id="filter7_dddd_1900_3101"
      x="346.531"
      y="0"
      width="281"
      height="231.861"
      filterUnits="userSpaceOnUse"
      color-interpolation-filters="sRGB"
    >
      <feFlood flood-opacity="0" result="BackgroundImageFix" />
      <feColorMatrix
        in="SourceAlpha"
        type="matrix"
        values="0 0 0 0 0 0 0 0 0 0 0 0 0 0 0 0 0 0 127 0"
        result="hardAlpha"
      />
      <feOffset />
      <feColorMatrix
        type="matrix"
        values="0 0 0 0 0 0 0 0 0 0 0 0 0 0 0 0 0 0 0.03 0"
      />
      <feBlend
        mode="normal"
        in2="BackgroundImageFix"
        result="effect1_dropShadow_1900_3101"
      />
      <feColorMatrix
        in="SourceAlpha"
        type="matrix"
        values="0 0 0 0 0 0 0 0 0 0 0 0 0 0 0 0 0 0 127 0"
        result="hardAlpha"
      />
      <feOffset dx="2" dy="-7" />
      <feGaussianBlur stdDeviation="8" />
      <feColorMatrix
        type="matrix"
        values="0 0 0 0 0 0 0 0 0 0 0 0 0 0 0 0 0 0 0.03 0"
      />
      <feBlend
        mode="normal"
        in2="effect1_dropShadow_1900_3101"
        result="effect2_dropShadow_1900_3101"
      />
      <feColorMatrix
        in="SourceAlpha"
        type="matrix"
        values="0 0 0 0 0 0 0 0 0 0 0 0 0 0 0 0 0 0 127 0"
        result="hardAlpha"
      />
      <feOffset dx="6" dy="-29" />
      <feGaussianBlur stdDeviation="14.5" />
      <feColorMatrix
        type="matrix"
        values="0 0 0 0 0 0 0 0 0 0 0 0 0 0 0 0 0 0 0.03 0"
      />
      <feBlend
        mode="normal"
        in2="effect2_dropShadow_1900_3101"
        result="effect3_dropShadow_1900_3101"
      />
      <feColorMatrix
        in="SourceAlpha"
        type="matrix"
        values="0 0 0 0 0 0 0 0 0 0 0 0 0 0 0 0 0 0 127 0"
        result="hardAlpha"
      />
      <feOffset dx="14" dy="-64" />
      <feGaussianBlur stdDeviation="20" />
      <feColorMatrix
        type="matrix"
        values="0 0 0 0 0 0 0 0 0 0 0 0 0 0 0 0 0 0 0.02 0"
      />
      <feBlend
        mode="normal"
        in2="effect3_dropShadow_1900_3101"
        result="effect4_dropShadow_1900_3101"
      />
      <feBlend
        mode="normal"
        in="SourceGraphic"
        in2="effect4_dropShadow_1900_3101"
        result="shape"
      />
    </filter>
  </defs>
</svg>
